<svg xmlns="http://www.w3.org/2000/svg" viewBox="0 0 256 256" role="img" aria-labelledby="title">
  <title id="title">Open storybook with a star</title>
  <rect x="8" y="8" width="240" height="240" rx="48" fill="#172554"/>
  <circle cx="190" cy="62" r="10" fill="#FCD34D"/>
  <path d="M39 182c31-22 61-21 89 1V77c-29-17-59-18-89-1z" fill="#F8FAFC"/>
  <path d="M217 182c-31-22-61-21-89 1V77c29-17 59-18 89-1z" fill="#DBEAFE"/>
  <path d="M128 79v104" stroke="#93C5FD" stroke-width="7" stroke-linecap="round"/>
  <path d="m181 44 5 12 13 1-10 8 3 13-11-7-11 7 3-13-10-8 13-1z" fill="#FDE68A"/>
  <path d="M66 117h39M66 137h34M151 117h39M151 137h34" stroke="#94A3B8" stroke-width="6" stroke-linecap="round"/>
</svg>
