<svg xmlns="http://www.w3.org/2000/svg" viewBox="0 0 256 256" width="256" height="256" role="img" aria-label="Storybook with a small sheep secret">
  <title>Book icon option 10: storybook with a small sheep</title>
  <rect width="256" height="256" rx="48" fill="#7B8F55"/>
  <path d="M38 103c30-15 61-12 90 8v105c-29-18-60-21-90-7z" fill="#FFF9E9" stroke="#3C4B3E" stroke-width="8" stroke-linejoin="round"/>
  <path d="M218 103c-30-15-61-12-90 8v105c29-18 60-21 90-7z" fill="#FFF1D0" stroke="#3C4B3E" stroke-width="8" stroke-linejoin="round"/>
  <path d="M128 111v105" stroke="#3C4B3E" stroke-width="8" stroke-linecap="round"/>
  <path d="M62 138h53M62 164h41M194 138h-53M194 164h41" stroke="#B6BF8A" stroke-width="7" stroke-linecap="round"/>
  <circle cx="128" cy="69" r="23" fill="#FFF9E9" stroke="#3C4B3E" stroke-width="7"/>
  <path d="M111 59c-16-16-30 8-12 14M145 59c16-16 30 8 12 14" fill="none" stroke="#3C4B3E" stroke-width="7" stroke-linecap="round"/>
  <circle cx="120" cy="68" r="3" fill="#3C4B3E"/>
  <circle cx="136" cy="68" r="3" fill="#3C4B3E"/>
</svg>
