<svg xmlns="http://www.w3.org/2000/svg" viewBox="0 0 256 256" width="256" height="256" role="img" aria-label="Open book under stars">
  <title>Book icon option 01: open book under stars</title>
  <rect width="256" height="256" rx="48" fill="#15263D"/>
  <circle cx="48" cy="54" r="5" fill="#F7D774"/>
  <circle cx="205" cy="48" r="4" fill="#F7D774"/>
  <circle cx="184" cy="78" r="3" fill="#F7D774"/>
  <path d="M39 91c30-17 62-15 89 4v108c-27-18-59-21-89-5z" fill="#FFF9E9" stroke="#D5A93A" stroke-width="7" stroke-linejoin="round"/>
  <path d="M217 91c-30-17-62-15-89 4v108c27-18 59-21 89-5z" fill="#FFF4D6" stroke="#D5A93A" stroke-width="7" stroke-linejoin="round"/>
  <path d="M128 95v108" stroke="#D5A93A" stroke-width="7" stroke-linecap="round"/>
  <path d="M61 119c19-7 38-5 56 4M61 143c19-7 38-5 56 4M195 119c-19-7-38-5-56 4M195 143c-19-7-38-5-56 4" fill="none" stroke="#91A3B8" stroke-width="6" stroke-linecap="round"/>
</svg>
