<svg xmlns="http://www.w3.org/2000/svg" viewBox="0 0 256 256" role="img" aria-labelledby="title">
  <title id="title">Book with a subtle sheep motif</title>
  <rect x="8" y="8" width="240" height="240" rx="48" fill="#831843"/>
  <path d="M48 186c28-20 54-20 80-2V82c-25-16-52-17-80-2z" fill="#FFF1F2"/>
  <path d="M208 186c-28-20-54-20-80-2V82c25-16 52-17 80-2z" fill="#FCE7F3"/>
  <path d="M128 83v101" stroke="#FDA4AF" stroke-width="7"/>
  <path d="M101 126c0-29 51-29 51 0 22 3 29 27 13 40-11 9-57 9-68 0-16-13-10-37 4-40z" fill="#FFFFFF"/>
  <circle cx="145" cy="139" r="10" fill="#881337"/>
  <circle cx="149" cy="135" r="3" fill="#FFFFFF"/>
  <path d="M102 137C78 131 70 114 82 104M157 137c24-6 32-23 20-33" fill="none" stroke="#FDBA74" stroke-width="8" stroke-linecap="round"/>
  <path d="M112 164h35" stroke="#881337" stroke-width="5" stroke-linecap="round"/>
  <path d="M68 109h28M160 109h28M68 167h24M164 167h24" stroke="#FDA4AF" stroke-width="6" stroke-linecap="round"/>
</svg>
